<svg width="739" height="515" viewBox="0 0 739 515" fill="none" xmlns="http://www.w3.org/2000/svg">
<path d="M48.0529 4.40191C27.9976 10.9667 6.61077 26.9572 1.99817 47.5656C-2.61444 68.174 2.90167 90.3613 15.0751 107.563C24.3955 120.704 39.3508 131.685 55.3641 129.857C67.2523 128.48 77.3334 120.36 88.8531 117C99.4692 113.89 110.953 114.911 121.569 111.813C143.812 105.331 157.745 80.2826 154.702 57.3356C151.658 34.3886 133.98 14.9198 112.51 6.21821C91.0405 -2.48339 66.4795 -1.41498 44.3676 5.48219" fill="#E0E0E0"/>
<path d="M658.926 411.964C642.366 408.688 624.367 415.68 613.846 428.869C603.325 442.058 600.436 460.719 605.821 476.698C611.207 492.677 624.486 505.628 640.368 511.314C651.983 515.469 665.607 515.695 676.033 509.154C685.02 503.539 690.608 493.721 693.651 483.524C698.323 467.984 697.622 450.474 689.775 436.265C681.929 422.055 669.411 410.825 653.16 411.157" fill="#EBEBEB"/>
<path d="M731.05 402.859L732.013 404.64C733.107 406.647 734.759 408.296 736.768 409.388L738.552 410.362L736.768 411.323C734.759 412.416 733.107 414.065 732.013 416.072L731.05 417.853L730.075 416.072C728.981 414.065 727.33 412.416 725.32 411.323L723.537 410.362L725.32 409.388C727.33 408.296 728.981 406.647 730.075 404.64L731.05 402.859Z" fill="#EBEBEB"/>
<path d="M419.963 71.2485C409.79 66.7244 398.705 64.6165 387.579 65.0902C376.453 65.564 365.588 68.6065 355.838 73.9789C335.319 85.5059 321.362 106.708 300.261 117.131C276.318 129.002 248.048 124.847 221.335 125.322C194.623 125.797 163.821 134.51 153.989 159.309C145.667 180.262 155.82 204.812 148.723 226.204C142.779 243.927 126.527 255.692 113.938 269.51C93.0623 292.445 81.412 324.485 86.3693 355.077C91.3267 385.67 114.259 413.567 144.372 421.093C177.1 429.261 213.18 414.042 244.743 425.925C265.987 433.938 281.05 452.778 300.249 464.874C332.561 485.222 377.153 483.963 408.265 461.824C424.171 450.51 436.463 434.52 453.012 424.168C495.809 397.315 555.476 414.149 598.963 388.364C633.569 367.887 648.905 320.402 632.915 283.53C621.193 256.558 595.848 237.042 585.363 209.584C576.506 186.53 579.204 160.912 576.47 136.35C573.736 111.789 562.335 84.8292 538.737 77.4809C523.164 72.6375 506.508 77.659 490.341 79.7721C464.983 83.0841 443.133 82.1463 420.01 71.2485" fill="#E0E0E0"/>
<path d="M708.381 286.699L708.951 287.732C709.589 288.892 710.552 289.841 711.721 290.463L712.756 291.032L711.721 291.59C710.549 292.214 709.586 293.167 708.951 294.333L708.381 295.353L707.81 294.333C707.169 293.172 706.208 292.22 705.04 291.59L704.006 291.032L705.04 290.463C706.204 289.834 707.165 288.887 707.81 287.732L708.381 286.699Z" fill="#EBEBEB"/>
<path d="M48.3015 337.092L48.8603 338.113C49.5011 339.274 50.4626 340.226 51.6302 340.856L52.6764 341.414L51.6302 341.983C50.4659 342.612 49.5051 343.559 48.8603 344.714L48.3015 345.747L47.7309 344.714C47.0861 343.559 46.1253 342.612 44.9609 341.983L43.9148 341.414L44.9609 340.856C46.1285 340.226 47.09 339.274 47.7309 338.113L48.3015 337.092Z" fill="#EBEBEB"/>
<path d="M23.7639 451.151L24.7387 452.932C25.8331 454.939 27.4842 456.587 29.494 457.68L31.2772 458.654L29.494 459.627C27.4842 460.72 25.8331 462.369 24.7387 464.376L23.7639 466.144L22.8009 464.376C21.7066 462.369 20.0554 460.72 18.0457 459.627L16.2625 458.654L18.0457 457.68C20.0554 456.587 21.7066 454.939 22.8009 452.932L23.7639 451.151Z" fill="#EBEBEB"/>
<path d="M295.814 45.8443L296.788 47.625C297.883 49.6318 299.534 51.2807 301.544 52.3735L303.327 53.3469L301.544 54.3203C299.534 55.4132 297.883 57.062 296.788 59.0688L295.814 60.8376L294.839 59.0688C293.744 57.062 292.093 55.4132 290.083 54.3203L288.336 53.2994L290.107 52.326C292.117 51.2332 293.768 49.5844 294.863 47.5775L295.814 45.8443Z" fill="#EBEBEB"/>
<path d="M550.435 205.014L551.398 206.794C552.493 208.801 554.144 210.45 556.154 211.543L557.937 212.516L556.154 213.478C554.144 214.57 552.493 216.219 551.398 218.226L550.435 220.007L549.461 218.226C548.366 216.219 546.715 214.57 544.705 213.478L542.922 212.516L544.705 211.543C546.715 210.45 548.366 208.801 549.461 206.794L550.435 205.014Z" fill="#FAFAFA"/>
</svg>
