<svg width="369" height="156" viewBox="0 0 369 156" fill="none" xmlns="http://www.w3.org/2000/svg">
<path d="M3.19165 111.942C2.08605 116.382 59.1373 163.475 194.329 153.788C310.5 145.478 367.397 92.3545 367.397 92.3545L3.19165 111.942Z" fill="#BA68C8"/>
<path opacity="0.2" d="M3.19165 111.942C2.08605 116.382 59.1373 163.475 194.329 153.788C310.5 145.478 367.397 92.3545 367.397 92.3545L3.19165 111.942Z" fill="black"/>
<path d="M185.429 125.024C286.327 120.22 367.602 105.452 366.961 92.0401C366.321 78.6281 284.008 71.6505 183.11 76.4552C82.2125 81.2598 0.937844 96.0274 1.57824 109.439C2.21864 122.852 84.5316 129.829 185.429 125.024Z" fill="#BA68C8"/>
<path d="M100.613 94.5268C100.613 94.5268 95.2876 12.01 177.221 1.55144C259.154 -8.90711 266.453 77.7884 266.453 77.7884C266.453 77.7884 213.42 118.151 100.613 94.5268Z" fill="#F5F5F5"/>
<path d="M142.879 21.1865C143.152 21.5782 140.311 23.7744 136.162 27.7156C135.14 28.7009 134.01 29.7812 132.869 31.0158C131.728 32.2504 130.491 33.5681 129.303 34.9808C124.009 41.1948 119.607 48.115 116.226 55.5418C115.477 57.2749 114.728 58.9013 114.169 60.4683C113.61 62.0353 112.98 63.5073 112.576 64.8606C110.769 70.2739 109.996 73.7759 109.521 73.7047C109.045 73.6335 109.164 70.0128 110.472 64.2077C110.805 62.7713 111.197 61.2043 111.744 59.5661C112.291 57.9279 112.933 56.1828 113.61 54.3546C116.807 46.4801 121.393 39.2426 127.151 32.9865C128.506 31.5857 129.766 30.2323 131.074 29.0808C132.241 27.9788 133.463 26.9368 134.735 25.9587C139.372 22.3736 142.689 20.8422 142.879 21.1865Z" fill="white"/>
<path d="M353.18 90.74C353.039 90.9649 352.871 91.1721 352.681 91.3573C352.155 91.9077 351.586 92.4158 350.981 92.8768C348.7 94.5018 346.203 95.8004 343.562 96.735C326.384 103.387 308.334 107.529 289.971 109.034C286.404 109.307 283.599 109.437 281.649 109.485H279.378C279.113 109.503 278.847 109.503 278.582 109.485C278.842 109.42 279.11 109.389 279.378 109.39L281.637 109.235C283.61 109.105 286.452 108.915 289.959 108.582C308.255 106.848 326.242 102.713 343.455 96.2839C346.083 95.3945 348.584 94.1695 350.897 92.6394C351.69 92.046 352.452 91.412 353.18 90.74Z" fill="white"/>
<path d="M162.636 155.331C162.238 155.146 161.863 154.915 161.519 154.643C160.53 153.969 159.588 153.227 158.701 152.423C157.367 151.243 156.126 149.961 154.992 148.588C153.602 146.908 152.358 145.113 151.271 143.223C150.203 141.322 149.293 139.336 148.549 137.287C147.955 135.61 147.487 133.892 147.146 132.147C146.911 130.971 146.752 129.782 146.671 128.585C146.622 128.148 146.622 127.706 146.671 127.268C146.789 127.268 146.92 129.12 147.586 132.016C147.98 133.725 148.484 135.406 149.096 137.05C149.865 139.054 150.775 141.002 151.818 142.878C152.896 144.733 154.107 146.507 155.444 148.185C156.546 149.552 157.737 150.845 159.01 152.055C161.174 154.144 162.708 155.224 162.636 155.331Z" fill="#263238"/>
<path d="M157.025 136.48C157.025 136.563 156.727 136.705 156.632 137.145C156.596 137.258 156.587 137.378 156.605 137.496C156.624 137.613 156.67 137.725 156.739 137.821C156.829 137.908 156.94 137.971 157.061 138.001C157.182 138.032 157.309 138.031 157.43 137.997C157.55 137.964 157.66 137.899 157.747 137.81C157.835 137.72 157.897 137.61 157.928 137.489C157.937 137.37 157.919 137.251 157.876 137.14C157.833 137.029 157.765 136.929 157.678 136.848C157.358 136.515 157.013 136.575 156.989 136.48C156.965 136.385 157.369 136.136 157.952 136.48C158.121 136.588 158.26 136.738 158.355 136.914C158.451 137.09 158.5 137.288 158.499 137.489C158.488 137.747 158.392 137.995 158.227 138.194C158.062 138.394 157.836 138.534 157.583 138.593C157.366 138.653 157.137 138.65 156.921 138.584C156.706 138.519 156.513 138.394 156.366 138.223C156.219 138.053 156.124 137.844 156.091 137.622C156.058 137.399 156.089 137.172 156.181 136.967C156.525 136.337 157.048 136.397 157.025 136.48Z" fill="#263238"/>
<path d="M162.35 145.989C162.35 146.072 162.064 146.202 161.957 146.653C161.924 146.767 161.917 146.887 161.935 147.004C161.954 147.12 161.998 147.232 162.064 147.33C162.149 147.431 162.263 147.504 162.391 147.538C162.518 147.572 162.654 147.565 162.778 147.52C162.908 147.494 163.026 147.429 163.118 147.334C163.21 147.238 163.269 147.117 163.289 146.986C163.296 146.869 163.277 146.752 163.234 146.643C163.191 146.535 163.124 146.437 163.039 146.357C162.718 146.024 162.373 146.072 162.35 145.989C162.326 145.905 162.73 145.644 163.313 145.989C163.482 146.097 163.621 146.246 163.716 146.423C163.812 146.599 163.861 146.797 163.859 146.998C163.829 147.154 163.768 147.302 163.679 147.434C163.59 147.566 163.476 147.679 163.343 147.766C163.209 147.853 163.06 147.913 162.903 147.941C162.747 147.969 162.586 147.966 162.43 147.931C162.275 147.896 162.128 147.83 161.999 147.737C161.87 147.644 161.76 147.527 161.677 147.391C161.594 147.255 161.54 147.104 161.516 146.947C161.493 146.79 161.501 146.629 161.541 146.475C161.85 145.834 162.373 145.905 162.35 145.989Z" fill="#263238"/>
<path d="M2.00525 108.642C2.31523 108.504 2.63768 108.397 2.96819 108.321L5.77379 107.526C8.15142 106.849 11.7179 105.935 16.1521 104.879C24.9375 102.766 37.1942 100.249 50.8655 98.2901C64.5369 96.3314 77.0195 95.3698 86.0545 94.9424C90.572 94.7287 94.2335 94.6219 96.7538 94.61H99.6664C100.006 94.5794 100.349 94.5794 100.689 94.61C100.355 94.667 100.017 94.6987 99.6783 94.705L96.7657 94.8356C94.2454 94.9306 90.5838 95.0967 86.0663 95.3698C77.0432 95.904 64.5964 96.9605 50.9369 98.9311C37.2774 100.902 25.0445 103.324 16.2354 105.33C11.8249 106.327 8.27031 107.17 5.82135 107.787L2.99197 108.476C2.66798 108.557 2.33804 108.613 2.00525 108.642V108.642Z" fill="#263238"/>
<path d="M267.729 117.937C267.196 117.673 266.687 117.363 266.208 117.011L262.154 114.328C258.73 112.061 253.963 108.998 248.589 105.781C243.216 102.564 238.259 99.8453 234.645 97.8746L230.365 95.5716C229.826 95.3131 229.309 95.0114 228.819 94.6694C229.389 94.8519 229.942 95.0823 230.472 95.358C231.518 95.8328 233.016 96.545 234.847 97.4829C238.52 99.3348 243.525 102.03 248.91 105.247C254.296 108.464 259.039 111.61 262.403 113.96C264.08 115.147 265.435 116.121 266.35 116.809C266.842 117.144 267.304 117.522 267.729 117.937V117.937Z" fill="#263238"/>
<path d="M234.419 102.362C234.49 102.433 234.134 102.73 234.158 103.347C234.164 103.679 234.3 103.994 234.538 104.226C234.694 104.33 234.874 104.392 235.061 104.408C235.249 104.425 235.437 104.393 235.608 104.318C235.78 104.242 235.93 104.124 236.044 103.975C236.159 103.826 236.233 103.651 236.262 103.466C236.261 103.3 236.226 103.136 236.159 102.985C236.091 102.834 235.993 102.698 235.869 102.587C235.43 102.16 234.978 102.219 234.966 102.124C234.954 102.029 235.453 101.78 236.155 102.243C236.35 102.378 236.513 102.555 236.632 102.76C236.751 102.965 236.824 103.194 236.844 103.43C236.843 103.739 236.75 104.041 236.576 104.297C236.403 104.553 236.157 104.751 235.869 104.867C235.594 104.999 235.284 105.046 234.981 105.002C234.678 104.958 234.396 104.824 234.169 104.617C234 104.446 233.872 104.238 233.795 104.01C233.719 103.781 233.697 103.538 233.73 103.3C233.837 102.492 234.407 102.291 234.419 102.362Z" fill="#263238"/>
<path d="M80.5836 97.7677C80.5836 97.839 80.2983 98.1357 80.322 98.7411C80.3209 98.9059 80.3542 99.0691 80.4197 99.2204C80.4852 99.3716 80.5815 99.5076 80.7025 99.6196C80.858 99.7269 81.0384 99.7925 81.2265 99.8103C81.4147 99.8281 81.6043 99.7974 81.7772 99.7212C81.95 99.645 82.1005 99.5258 82.2141 99.375C82.3277 99.2242 82.4008 99.0469 82.4262 98.8599C82.4242 98.6962 82.3883 98.5348 82.3208 98.3856C82.2533 98.2365 82.1556 98.1029 82.0339 97.9933C81.5941 97.554 81.1423 97.6253 81.1304 97.5303C81.1185 97.4353 81.6178 97.186 82.3192 97.649C82.5156 97.7829 82.6795 97.9591 82.7988 98.1645C82.9181 98.3699 82.9899 98.5994 83.0088 98.8361C83.0085 99.1439 82.9152 99.4444 82.7414 99.6985C82.5675 99.9526 82.321 100.149 82.0339 100.261C81.7562 100.394 81.4448 100.442 81.1398 100.398C80.8347 100.353 80.5499 100.219 80.322 100.011C80.1558 99.8382 80.031 99.6297 79.9569 99.4015C79.8827 99.1733 79.8613 98.9313 79.8941 98.6937C80.001 97.8983 80.5717 97.6846 80.5836 97.7677Z" fill="#263238"/>
<path d="M52.2053 101.341C52.2053 101.412 51.92 101.697 51.9318 102.314C51.9357 102.479 51.9724 102.642 52.0397 102.793C52.1071 102.944 52.2037 103.08 52.3241 103.193C52.4749 103.308 52.6549 103.379 52.8439 103.398C53.0329 103.417 53.2234 103.383 53.3941 103.3C53.5722 103.231 53.727 103.113 53.8407 102.959C53.9543 102.806 54.022 102.623 54.036 102.433C54.0372 102.268 54.0039 102.105 53.9384 101.954C53.8729 101.803 53.7766 101.667 53.6556 101.555C53.2158 101.127 52.764 101.187 52.7521 101.092C52.7402 100.997 53.2395 100.759 53.9409 101.222C54.137 101.356 54.2999 101.532 54.4173 101.737C54.5348 101.943 54.6036 102.173 54.6186 102.409C54.6242 102.717 54.5348 103.019 54.3624 103.274C54.1901 103.528 53.9433 103.724 53.6556 103.834C53.3779 103.968 53.0666 104.015 52.7615 103.971C52.4564 103.926 52.1716 103.792 51.9437 103.585C51.7775 103.411 51.6527 103.203 51.5786 102.975C51.5044 102.747 51.483 102.505 51.5158 102.267C51.6346 101.472 52.1934 101.258 52.2053 101.341Z" fill="#263238"/>
<path d="M19.8476 106.327C19.9071 106.398 19.5504 106.695 19.5742 107.312C19.5746 107.478 19.6097 107.642 19.6773 107.793C19.7448 107.944 19.8434 108.08 19.9665 108.191C20.1172 108.307 20.298 108.377 20.4876 108.394C20.6771 108.411 20.8676 108.373 21.0364 108.286C21.2144 108.22 21.3696 108.104 21.4835 107.953C21.5974 107.801 21.665 107.62 21.6784 107.431C21.6724 107.099 21.5357 106.784 21.298 106.552C20.8581 106.125 20.3945 106.184 20.3945 106.089C20.3945 105.994 20.8819 105.745 21.5833 106.22C21.7787 106.354 21.9411 106.53 22.0585 106.736C22.1759 106.942 22.2451 107.171 22.2609 107.407C22.2615 107.714 22.1701 108.013 21.9984 108.267C21.8268 108.521 21.5828 108.718 21.298 108.832C21.0203 108.965 20.7089 109.013 20.4038 108.969C20.0988 108.924 19.814 108.79 19.5861 108.582C19.4212 108.408 19.2965 108.2 19.2205 107.972C19.1446 107.744 19.1192 107.503 19.1462 107.265C19.2651 106.457 19.8357 106.256 19.8476 106.327Z" fill="#263238"/>
<path d="M247.373 111.099C247.444 111.17 247.087 111.467 247.111 112.073C247.11 112.237 247.143 112.401 247.209 112.552C247.274 112.703 247.371 112.839 247.492 112.951C247.641 113.069 247.821 113.142 248.011 113.161C248.2 113.179 248.392 113.144 248.561 113.058C248.741 112.989 248.898 112.872 249.013 112.719C249.129 112.565 249.199 112.383 249.215 112.191C249.213 112.028 249.177 111.866 249.11 111.717C249.042 111.568 248.945 111.434 248.823 111.325C248.383 110.885 247.931 110.957 247.92 110.862C247.908 110.767 248.407 110.517 249.108 110.98C249.305 111.114 249.469 111.291 249.588 111.496C249.707 111.701 249.779 111.931 249.798 112.168C249.813 112.388 249.781 112.609 249.705 112.816C249.629 113.024 249.509 113.212 249.355 113.37C249.2 113.528 249.014 113.652 248.808 113.733C248.602 113.814 248.381 113.85 248.161 113.84C247.94 113.83 247.723 113.774 247.526 113.674C247.328 113.575 247.154 113.435 247.015 113.263C246.875 113.092 246.773 112.893 246.716 112.68C246.659 112.466 246.648 112.243 246.683 112.025C246.79 111.23 247.361 111.016 247.373 111.099Z" fill="#263238"/>
<path d="M189.921 10.8466C186.54 9.71062 182.954 9.31157 179.405 9.6763C175.856 10.041 172.427 11.1611 169.348 12.961C166.269 14.7609 163.612 17.1988 161.557 20.1105C159.501 23.0222 158.094 26.3401 157.431 29.8405L157.324 30.4935C156.913 32.8858 156.913 35.3307 157.324 37.723C158.09 42.1748 159.704 46.4385 162.079 50.2828C168.891 61.3111 172.541 61.6673 173.207 67.959C173.872 74.2508 174.823 75.5922 171.602 78.2751C171.602 78.2751 167.179 78.5482 164.766 80.0202C162.353 81.4922 160.332 82.5606 160.07 89.9327C159.809 97.3047 159.488 101.804 159.488 101.804C172.361 102.559 185.276 102.062 198.053 100.32L196.436 81.7296C196.177 80.8681 195.692 80.0914 195.032 79.4798C194.371 78.8682 193.559 78.4441 192.679 78.2514C189.731 77.7172 185.178 77.8478 184.905 76.2451C184.631 74.6425 185.309 74.0965 185.309 74.0965C185.309 74.0965 190.67 76.2451 194.154 74.6306C197.637 73.0162 201.536 70.8912 202.202 68.2083C202.868 65.5254 204.972 56.4202 204.579 56.0166C204.187 55.613 209.822 51.0663 210.06 40.584C210.298 30.1017 203.331 16.2005 194.07 12.3186C192.636 11.7805 191.253 11.2898 189.921 10.8466Z" fill="#455A64"/>
<path d="M172.787 34.5298C172.787 34.5298 192.712 28.4874 189.74 51.4938C189.74 51.4938 168.436 54.1648 172.787 34.5298Z" fill="#263238"/>
<path d="M198.324 50.9952C198.324 50.9952 189.931 31.004 204.648 32.9984C204.648 33.0578 212.637 47.4694 198.324 50.9952Z" fill="#263238"/>
<path d="M225.263 76.079C225.263 76.079 221.696 77.2662 220.817 78.2396C219.937 79.213 218.605 82.7507 217.143 83.178C215.901 83.3755 214.63 83.2571 213.446 82.8337C213.446 82.8337 212.673 78.5364 211.068 76.6251C209.463 74.7139 209.059 75.1649 209.059 75.1649C209.059 75.1649 205.029 75.07 205.243 72.7907C205.243 72.7907 206.919 70.8319 209.761 73.5623C210.169 73.9606 210.707 74.1989 211.277 74.2338C211.846 74.2687 212.409 74.0978 212.863 73.7523C214.456 72.4583 214.694 69.2768 214.528 67.1519C214.528 67.1519 212.923 63.4362 215.431 62.6883C215.431 62.6883 217.535 62.8426 216.382 67.1875C216.382 67.1875 214.54 71.8054 217.084 73.6336C217.084 73.6336 219.152 74.5358 221.482 70.5233L222.255 69.0513C222.255 69.0513 222.386 65.8698 225.156 65.7867C225.317 65.7809 225.475 65.8327 225.601 65.9328C225.728 66.0328 225.814 66.1747 225.845 66.3328C225.99 67.0869 225.851 67.8679 225.453 68.5254C225.056 69.183 224.429 69.6705 223.694 69.8941C223.694 69.8941 220.519 72.2684 220.935 75.0106C220.935 75.0106 221.898 76.0434 224.288 74.9513L225.203 74.607C225.203 74.607 228.211 72.0428 228.651 73.2181C229.103 74.6663 227.391 76.1859 225.263 76.079Z" fill="#455A64"/>
<path d="M213.433 82.2164L209.545 98.7411L212.91 98.2069L216.381 97.5184L218.39 82.1689L213.433 82.2164Z" fill="#455A64"/>
<g opacity="0.2">
<path opacity="0.2" d="M170.326 16.8416C169.597 16.8407 168.89 17.0886 168.321 17.5441C167.753 17.9997 167.357 18.6356 167.2 19.3464C167.094 20.0827 167.238 20.8331 167.609 21.4784C167.979 22.1236 168.555 22.6268 169.245 22.9078C169.954 23.1472 170.724 23.139 171.428 22.8846C172.132 22.6301 172.729 22.1444 173.12 21.507C173.473 20.8474 173.586 20.0864 173.441 19.3529C173.296 18.6195 172.901 17.9588 172.324 17.4826C171.952 17.2005 171.524 17.0032 171.068 16.9047C170.612 16.8063 170.139 16.809 169.684 16.9128" fill="white"/>
</g>
<path d="M175.914 39.1477C175.612 39.1195 175.31 39.1947 175.057 39.3608C174.805 39.527 174.616 39.7742 174.523 40.0618C174.431 40.3661 174.452 40.6931 174.581 40.9834C174.71 41.2738 174.939 41.5084 175.227 41.6447C175.514 41.7811 175.841 41.8101 176.148 41.7266C176.455 41.6431 176.722 41.4526 176.9 41.1895C177.073 40.9299 177.149 40.6185 177.116 40.3088C177.084 39.999 176.944 39.7102 176.722 39.492C176.579 39.3608 176.41 39.263 176.224 39.2055C176.039 39.148 175.844 39.1323 175.652 39.1596" fill="#455A64"/>
<path d="M176.46 44.0387C176.308 44.0235 176.155 44.0613 176.027 44.1456C175.899 44.23 175.804 44.3557 175.759 44.5017C175.721 44.6547 175.737 44.8159 175.804 44.9585C175.871 45.1011 175.985 45.2164 176.127 45.2852C176.269 45.3535 176.43 45.3695 176.582 45.3303C176.735 45.2912 176.868 45.1995 176.959 45.0715C177.037 44.9672 177.081 44.8422 177.087 44.7125C177.093 44.5829 177.06 44.4544 176.992 44.3436C176.924 44.2327 176.825 44.1445 176.707 44.0902C176.589 44.0359 176.458 44.018 176.329 44.0387" fill="#455A64"/>
<g opacity="0.2">
<path opacity="0.2" d="M165.572 24.2255C165.296 24.3285 165.064 24.5253 164.917 24.7817C164.771 25.038 164.72 25.3375 164.772 25.6278C164.825 25.9182 164.977 26.1809 165.204 26.3702C165.431 26.5594 165.717 26.663 166.012 26.663C166.308 26.663 166.594 26.5594 166.821 26.3702C167.047 26.1809 167.2 25.9182 167.253 25.6278C167.305 25.3375 167.253 25.038 167.107 24.7817C166.961 24.5253 166.729 24.3285 166.452 24.2255" fill="white"/>
</g>
<path d="M183.786 53.6781C183.477 53.7405 183.157 53.7405 182.847 53.6781C181.988 53.6486 181.134 53.5211 180.303 53.2983C177.512 52.5928 175.011 51.0339 173.15 48.8395C171.289 46.645 170.162 43.9248 169.925 41.0591C169.835 40.2027 169.835 39.3394 169.925 38.483C169.935 38.1671 170.007 37.8564 170.139 37.5689C170.258 37.5689 170.032 38.8985 170.317 40.9997C170.661 43.7387 171.795 46.3189 173.581 48.4264C175.366 50.5339 177.727 52.078 180.375 52.8709C182.407 53.5594 183.798 53.5713 183.786 53.6781Z" fill="#263238"/>
<path d="M189.779 38.8984C188.3 36.9738 186.483 35.3328 184.418 34.0549C182.259 32.9473 179.92 32.2318 177.51 31.9419C178.226 31.7625 178.972 31.7383 179.698 31.8706C181.467 32.0809 183.177 32.6417 184.726 33.5203C186.276 34.3989 187.634 35.5775 188.721 36.9871C189.213 37.5369 189.574 38.1901 189.779 38.8984Z" fill="#263238"/>
<path d="M195.862 41.3677C195.644 40.7867 195.532 40.1717 195.529 39.5514C195.357 38.0523 195.491 36.534 195.922 35.0878C196.154 34.3529 196.53 33.6712 197.028 33.0823C197.526 32.4934 198.136 32.009 198.822 31.657C199.094 31.486 199.397 31.3715 199.713 31.3205C200.03 31.2695 200.354 31.283 200.665 31.3603C200.106 31.5542 199.558 31.7801 199.024 32.0369C197.833 32.7972 196.942 33.9468 196.504 35.2896C196.102 36.6692 195.922 38.1036 195.969 39.5395C196.034 40.1506 195.998 40.7683 195.862 41.3677Z" fill="#263238"/>
<path d="M205.386 48.8109C205.154 49.4395 204.792 50.0119 204.323 50.4907C203.854 50.9694 203.288 51.3437 202.664 51.5887C202.088 51.9316 201.446 52.1491 200.78 52.2268C200.115 52.3046 199.44 52.2409 198.8 52.0399C200.021 51.832 201.216 51.4978 202.367 51.0427C203.45 50.4081 204.462 49.6599 205.386 48.8109Z" fill="#263238"/>
<path d="M193.88 60.3615C193.88 60.4328 193.642 60.6821 193.072 60.8245C192.693 60.9178 192.3 60.9348 191.914 60.8746C191.529 60.8143 191.159 60.6779 190.827 60.4735C190.495 60.269 190.207 60.0005 189.98 59.6837C189.753 59.3669 189.592 59.0082 189.505 58.6283C189.386 58.0466 189.505 57.7024 189.577 57.7024C189.648 57.7024 189.719 58.0348 189.921 58.4859C190.168 59.0742 190.581 59.5777 191.11 59.9342C191.663 60.2605 192.299 60.4212 192.941 60.3972C193.524 60.3615 193.845 60.2666 193.88 60.3615Z" fill="#263238"/>
<path d="M190.406 74.8564C189.707 75.0351 188.976 75.0594 188.266 74.9276C186.534 74.7138 184.865 74.1434 183.366 73.2525C181.866 72.3616 180.567 71.1695 179.552 69.7518C179.09 69.1976 178.764 68.543 178.601 67.8405C179.072 68.3621 179.509 68.9133 179.909 69.4906C182.054 72.0868 185.039 73.8542 188.349 74.4884C189.043 74.5646 189.73 74.6875 190.406 74.8564V74.8564Z" fill="#263238"/>
<path d="M167.677 101.982C167.265 98.1985 167.265 94.3813 167.677 90.5976C168.089 94.3813 168.089 98.1985 167.677 101.982V101.982Z" fill="#263238"/>
<path d="M179.908 97.5779C178.223 98.221 176.41 98.453 174.617 98.2545C173.299 98.3187 171.998 97.929 170.932 97.1505C170.148 96.4263 170.159 95.6903 170.231 95.7022C170.302 95.7141 170.48 96.2839 171.206 96.8062C172.247 97.4081 173.44 97.6966 174.641 97.6372C177.53 97.7915 179.872 97.3998 179.908 97.5779Z" fill="#263238"/>
<path d="M191.549 101.032C191.115 99.4849 190.871 97.8903 190.824 96.2839C190.581 94.6887 190.541 93.0693 190.705 91.4641C191.405 94.6069 191.689 97.8277 191.549 101.044V101.032Z" fill="#263238"/>
<path d="M190.965 93.3634C190.612 94.4409 189.877 95.3527 188.899 95.9275C187.92 96.5024 186.765 96.7008 185.651 96.4856C186.657 96.2008 187.639 95.8356 188.587 95.3934C190.073 94.5387 190.798 93.2685 190.965 93.3634Z" fill="#263238"/>
<path d="M202.712 9.60022C201.378 10.1975 200.118 10.9464 198.956 11.832C197.931 12.8745 197.033 14.034 196.281 15.2865C196.21 15.2865 196.281 14.7404 196.614 13.9807C197.069 12.9862 197.727 12.0976 198.545 11.3719C199.364 10.6461 200.326 10.0993 201.369 9.76642C202.177 9.529 202.7 9.529 202.712 9.60022Z" fill="#455A64"/>
<path d="M204.16 8.32995C203.792 8.14678 203.367 8.10985 202.972 8.22659C202.577 8.34333 202.242 8.60506 202.032 8.95912C201.896 9.21448 201.84 9.50495 201.872 9.79249C201.904 10.08 202.022 10.3513 202.211 10.5707C202.4 10.79 202.651 10.9474 202.931 11.022C203.211 11.0967 203.507 11.0852 203.78 10.9891C204.012 10.9028 204.221 10.764 204.39 10.5836C204.56 10.4031 204.685 10.186 204.756 9.94914C204.828 9.71229 204.843 9.46215 204.802 9.21831C204.76 8.97448 204.663 8.74356 204.517 8.54364C204.421 8.40608 204.29 8.29699 204.137 8.228C203.984 8.15902 203.816 8.13271 203.649 8.15189" fill="#455A64"/>
<path d="M197.254 7.43959C195.917 8.0269 194.656 8.77219 193.497 9.6595C192.472 10.702 191.575 11.8615 190.822 13.114C190.751 13.114 190.822 12.5798 191.143 11.8082C191.604 10.8119 192.268 9.9225 193.093 9.19652C193.913 8.47024 194.877 7.92424 195.922 7.59392C196.671 7.35649 197.242 7.36836 197.254 7.43959Z" fill="#455A64"/>
<path d="M198.705 6.15748C198.335 5.97532 197.91 5.94019 197.515 6.05917C197.12 6.17816 196.785 6.44241 196.578 6.79853C196.438 7.05317 196.38 7.34414 196.411 7.63254C196.442 7.92094 196.561 8.19302 196.751 8.41242C196.941 8.63183 197.193 8.7881 197.475 8.86033C197.756 8.93256 198.053 8.91731 198.325 8.81664C198.557 8.7318 198.766 8.59431 198.935 8.41501C199.105 8.23572 199.23 8.01952 199.302 7.7835C199.373 7.54749 199.389 7.29811 199.347 7.05506C199.306 6.81202 199.208 6.58195 199.062 6.38303C198.969 6.24249 198.839 6.1311 198.685 6.06176C198.531 5.99243 198.361 5.96798 198.194 5.99128" fill="#455A64"/>
</svg>
