<svg width="812" height="455" viewBox="0 0 812 455" fill="none" xmlns="http://www.w3.org/2000/svg">
<path d="M729.02 7.34321C722.386 3.49694 713.815 6.90398 707.847 11.7356C701.879 16.5672 696.862 22.8708 689.777 25.8267C685.259 27.7142 680.1 28.201 676.106 30.9669C669.591 35.5492 668.45 44.785 669.579 52.6557C670.708 60.5263 673.466 68.3494 672.503 76.2438C671.778 82.0251 669.068 87.8182 670.542 93.4689C672.599 101.375 681.705 105.138 686.139 112.012C689.325 116.938 690.193 123.586 694.948 127.041C700.452 131.053 708.108 128.715 714.897 129.332C723.218 130.08 730.411 135.434 738.364 138.128C744.755 140.208 751.579 140.58 758.159 139.21C764.739 137.84 770.845 134.774 775.871 130.317C780.923 125.723 784.632 119.859 789.602 115.181C793.846 111.181 798.993 108.059 802.476 103.37C805.96 98.6804 807.351 93.2196 808.789 87.7589C810.893 79.7814 813.009 71.4834 811.476 63.3754C809.015 50.4357 797.971 41.0219 792.217 29.1744C789.97 24.5565 788.33 19.2738 784.169 16.2585C779.758 13.0533 773.79 13.3263 768.631 11.5812C761.225 9.08828 755.625 2.48788 748.053 0.552875C744.563 -0.275554 740.908 -0.0736887 737.531 1.13392C734.154 2.34153 731.201 4.50285 729.031 7.35508" fill="#BA68C8"/>
<g opacity="0.2">
<path opacity="0.2" d="M729.02 7.34321C722.386 3.49694 713.815 6.90398 707.847 11.7356C701.879 16.5672 696.862 22.8708 689.777 25.8267C685.259 27.7142 680.1 28.201 676.106 30.9669C669.591 35.5492 668.45 44.785 669.579 52.6557C670.708 60.5263 673.466 68.3494 672.503 76.2438C671.778 82.0251 669.068 87.8182 670.542 93.4689C672.599 101.375 681.705 105.138 686.139 112.012C689.325 116.938 690.193 123.586 694.948 127.041C700.452 131.053 708.108 128.715 714.897 129.332C723.218 130.08 730.411 135.434 738.364 138.128C744.755 140.208 751.579 140.58 758.159 139.21C764.739 137.84 770.845 134.774 775.871 130.317C780.923 125.723 784.632 119.859 789.602 115.181C793.846 111.181 798.993 108.059 802.476 103.37C805.96 98.6804 807.351 93.2196 808.789 87.7589C810.893 79.7814 813.009 71.4834 811.476 63.3754C809.015 50.4357 797.971 41.0219 792.217 29.1744C789.97 24.5565 788.33 19.2738 784.169 16.2585C779.758 13.0533 773.79 13.3263 768.631 11.5812C761.225 9.08828 755.625 2.48788 748.053 0.552875C744.563 -0.275554 740.908 -0.0736887 737.531 1.13392C734.154 2.34153 731.201 4.50285 729.031 7.35508" fill="white"/>
</g>
<path d="M741.881 125.964C773.015 124.862 797.36 98.765 796.257 67.6749C795.153 36.5849 769.019 12.2747 737.885 13.3767C706.75 14.4787 682.405 40.5755 683.509 71.6656C684.612 102.756 710.747 127.066 741.881 125.964Z" fill="#BA68C8"/>
<path opacity="0.4" d="M723.253 78.9743C722.132 80.406 720.61 81.4732 718.881 82.0411C717.152 82.6089 715.293 82.6519 713.539 82.1645C711.785 81.6771 710.216 80.6812 709.029 79.3029C707.842 77.9246 707.092 76.2257 706.872 74.4213C706.653 72.6169 706.974 70.7879 707.795 69.1659C708.617 67.5438 709.902 66.2015 711.487 65.3088C713.073 64.416 714.888 64.013 716.703 64.1507C718.518 64.2884 720.252 64.9606 721.684 66.0822C723.603 67.5848 724.846 69.7866 725.141 72.204C725.435 74.6213 724.756 77.0564 723.253 78.9743V78.9743Z" fill="black"/>
<path opacity="0.4" d="M729.365 50.0678C728.712 50.8994 727.828 51.5191 726.823 51.8486C725.817 52.1782 724.737 52.2027 723.718 51.9193C722.699 51.6358 721.787 51.057 721.097 50.256C720.408 49.455 719.971 48.4678 719.843 47.4192C719.715 46.3706 719.902 45.3077 720.378 44.3648C720.855 43.4219 721.602 42.6413 722.523 42.1218C723.444 41.6023 724.498 41.3671 725.553 41.446C726.608 41.525 727.616 41.9144 728.449 42.5652C729.003 42.9976 729.466 43.5348 729.812 44.1459C730.157 44.7571 730.379 45.4303 730.464 46.1271C730.549 46.8238 730.496 47.5305 730.307 48.2067C730.118 48.8829 729.798 49.5153 729.365 50.0678V50.0678Z" fill="black"/>
<path d="M281.552 453.9C295.655 453.293 306.595 441.384 305.986 427.301C305.378 413.218 293.452 402.294 279.349 402.901C265.246 403.509 254.306 415.418 254.915 429.501C255.523 443.584 267.449 454.508 281.552 453.9Z" fill="#BA68C8"/>
<path opacity="0.2" d="M269.674 421.423C268.854 421.514 268.025 421.361 267.292 420.981C266.559 420.602 265.955 420.014 265.556 419.291C265.158 418.569 264.984 417.745 265.055 416.924C265.125 416.102 265.439 415.32 265.955 414.677C266.471 414.033 267.167 413.557 267.954 413.309C268.742 413.06 269.585 413.051 270.378 413.281C271.171 413.511 271.877 413.972 272.408 414.603C272.939 415.235 273.27 416.009 273.36 416.829C273.48 417.926 273.159 419.026 272.469 419.887C271.778 420.748 270.773 421.301 269.674 421.423V421.423Z" fill="black"/>
<path opacity="0.2" d="M278.209 411.879C277.745 411.919 277.279 411.822 276.87 411.6C276.46 411.379 276.125 411.041 275.905 410.631C275.686 410.22 275.592 409.754 275.636 409.291C275.68 408.828 275.859 408.388 276.151 408.025C276.443 407.663 276.835 407.394 277.279 407.252C277.723 407.11 278.198 407.102 278.647 407.228C279.096 407.354 279.497 407.609 279.802 407.961C280.107 408.313 280.301 408.746 280.361 409.208C280.402 409.525 280.379 409.848 280.292 410.156C280.205 410.464 280.057 410.752 279.856 411.002C279.655 411.251 279.405 411.457 279.122 411.608C278.839 411.759 278.529 411.851 278.209 411.879Z" fill="black"/>
<path opacity="0.2" d="M286.033 414.11C286.013 413.935 286.045 413.758 286.126 413.602C286.207 413.445 286.332 413.316 286.486 413.23C286.64 413.145 286.816 413.107 286.992 413.122C287.168 413.136 287.335 413.203 287.474 413.312C287.612 413.422 287.714 413.57 287.768 413.738C287.822 413.905 287.824 414.085 287.776 414.254C287.727 414.424 287.629 414.575 287.495 414.689C287.36 414.802 287.195 414.874 287.019 414.894C286.903 414.909 286.785 414.9 286.671 414.868C286.558 414.837 286.453 414.783 286.361 414.71C286.269 414.637 286.192 414.546 286.136 414.443C286.08 414.34 286.045 414.227 286.033 414.11V414.11Z" fill="black"/>
<path d="M81.2225 216.039C108.582 216.039 130.76 193.892 130.76 166.572C130.76 139.252 108.582 117.104 81.2225 117.104C53.8635 117.104 31.6846 139.252 31.6846 166.572C31.6846 193.892 53.8635 216.039 81.2225 216.039Z" fill="#BA68C8"/>
<path opacity="0.2" d="M64.3524 183.904C64.3524 185.501 63.878 187.062 62.9892 188.39C62.1004 189.718 60.8372 190.752 59.3594 191.363C57.8815 191.974 56.2555 192.133 54.687 191.82C53.1186 191.508 51.6782 190.738 50.5481 189.608C49.418 188.478 48.649 187.038 48.3385 185.471C48.0279 183.905 48.1897 182.281 48.8033 180.806C49.417 179.332 50.455 178.072 51.786 177.186C53.1169 176.3 54.681 175.829 56.2804 175.831C57.3414 175.831 58.3921 176.04 59.3722 176.446C60.3523 176.852 61.2427 177.447 61.9924 178.196C62.7421 178.946 63.3365 179.836 63.7414 180.816C64.1464 181.795 64.354 182.844 64.3524 183.904V183.904Z" fill="white"/>
<path opacity="0.2" d="M52.8932 160.612C52.905 161.554 52.6362 162.478 52.1209 163.266C51.6056 164.055 50.8671 164.673 49.9993 165.041C49.1315 165.41 48.1735 165.513 47.2472 165.336C46.3209 165.16 45.468 164.712 44.7971 164.05C44.1261 163.389 43.6672 162.543 43.4789 161.62C43.2905 160.697 43.3812 159.74 43.7393 158.869C44.0974 157.997 44.7068 157.252 45.49 156.728C46.2732 156.203 47.1949 155.923 48.138 155.923C49.3889 155.923 50.5895 156.415 51.4796 157.293C52.3697 158.171 52.8776 159.363 52.8932 160.612Z" fill="white"/>
<path d="M33.2301 178.609C33.4441 179.464 -9.17492 220.301 1.80973 228.991C12.7944 237.68 59.0155 215.374 98.4129 183.607C137.81 151.84 173.736 113.199 163.881 103.037C154.026 92.8753 104.809 123.064 104.809 123.064L110.753 126.803C110.753 126.803 140.473 107.738 149.984 115.134C159.494 122.53 132.568 151.448 94.68 179.06C56.7924 206.673 20.0818 226.058 14.3993 218.496C8.71675 210.935 35.5245 185.696 35.5245 185.696L33.2301 178.609Z" fill="#BA68C8"/>
<path opacity="0.4" d="M33.2301 178.609C33.4441 179.464 -9.17492 220.301 1.80973 228.991C12.7944 237.68 59.0155 215.374 98.4129 183.607C137.81 151.84 173.736 113.199 163.881 103.037C154.026 92.8753 104.809 123.064 104.809 123.064L110.753 126.803C110.753 126.803 140.473 107.738 149.984 115.134C159.494 122.53 132.568 151.448 94.68 179.06C56.7924 206.673 20.0818 226.058 14.3993 218.496C8.71675 210.935 35.5245 185.696 35.5245 185.696L33.2301 178.609Z" fill="black"/>
<path d="M564.73 128.872C571.247 122.067 571.005 111.277 564.191 104.77C557.377 98.2627 546.571 98.5038 540.054 105.308C533.538 112.113 533.78 122.903 540.594 129.41C547.408 135.917 558.214 135.676 564.73 128.872Z" fill="#455A64"/>
<path d="M557.959 110.575C557.974 110.027 558.15 109.494 558.467 109.046C558.784 108.597 559.227 108.253 559.739 108.055C560.252 107.858 560.812 107.816 561.348 107.936C561.885 108.056 562.374 108.332 562.753 108.729C563.132 109.127 563.385 109.627 563.48 110.168C563.575 110.708 563.508 111.265 563.286 111.767C563.064 112.269 562.699 112.695 562.235 112.99C561.772 113.285 561.231 113.436 560.682 113.424C560.315 113.417 559.954 113.337 559.619 113.189C559.284 113.042 558.981 112.829 558.728 112.565C558.475 112.3 558.277 111.988 558.145 111.647C558.013 111.305 557.95 110.941 557.959 110.575V110.575Z" fill="#263238"/>
<path d="M563.524 117.069C563.529 116.746 563.63 116.432 563.814 116.167C563.998 115.902 564.257 115.697 564.557 115.579C564.858 115.461 565.187 115.436 565.503 115.505C565.818 115.574 566.106 115.736 566.329 115.969C566.553 116.202 566.702 116.496 566.757 116.814C566.813 117.132 566.772 117.459 566.641 117.754C566.51 118.049 566.294 118.298 566.02 118.47C565.747 118.641 565.428 118.728 565.105 118.719C564.678 118.706 564.272 118.526 563.976 118.218C563.68 117.909 563.518 117.496 563.524 117.069V117.069Z" fill="#263238"/>
<path d="M561.362 122.031C561.499 122.058 561.623 122.133 561.711 122.241C561.8 122.349 561.849 122.485 561.849 122.624C561.849 122.764 561.8 122.9 561.711 123.008C561.623 123.116 561.499 123.19 561.362 123.218C561.203 123.212 561.053 123.144 560.944 123.028C560.835 122.913 560.776 122.759 560.779 122.601C560.791 122.451 560.856 122.311 560.963 122.206C561.07 122.101 561.212 122.039 561.362 122.031V122.031Z" fill="#263238"/>
</svg>
