<svg width="665" height="469" viewBox="0 0 665 469" fill="none" xmlns="http://www.w3.org/2000/svg">
<path d="M196.373 190.867L196.944 191.899C197.594 193.053 198.553 194.002 199.713 194.642L200.748 195.2L199.713 195.769C198.549 196.398 197.588 197.345 196.944 198.5L196.373 199.533L195.802 198.5C195.166 197.343 194.208 196.395 193.044 195.769L191.998 195.2L193.044 194.642C194.206 194.008 195.162 193.057 195.802 191.899L196.373 190.867Z" fill="#FAFAFA"/>
<path d="M285.663 356.434L286.234 357.467C286.871 358.624 287.828 359.572 288.992 360.198L290.038 360.767L288.992 361.325C287.834 361.956 286.884 362.909 286.258 364.068L285.687 365.089L285.116 364.068C284.476 362.907 283.514 361.955 282.347 361.325L281.312 360.767L282.347 360.198C283.511 359.569 284.472 358.622 285.116 357.467L285.663 356.434Z" fill="#EBEBEB"/>
<path d="M108.388 460.034L108.958 461.067C109.603 462.222 110.564 463.169 111.728 463.798L112.775 464.367L111.728 464.925C110.561 465.555 109.599 466.507 108.958 467.668L108.388 468.689L107.817 467.668C107.184 466.505 106.226 465.552 105.059 464.925L104.013 464.367L105.059 463.798C106.223 463.172 107.18 462.224 107.817 461.067L108.388 460.034Z" fill="#EBEBEB"/>
<path d="M491.033 0.939209L491.603 1.972C492.237 3.12553 493.185 4.07628 494.338 4.71426L495.372 5.2722L494.338 5.83015C493.185 6.46813 492.237 7.41888 491.603 8.57241L491.033 9.6052L490.474 8.57241C489.849 7.42055 488.909 6.4696 487.763 5.83015L486.741 5.2722L487.763 4.71426C488.905 4.08123 489.845 3.13885 490.474 1.99575L491.033 0.939209Z" fill="#455A64"/>
<path d="M333.503 402.151L334.074 403.183C334.705 404.336 335.654 405.284 336.808 405.914L337.843 406.484L336.808 407.042C335.651 407.673 334.701 408.625 334.074 409.784L333.503 410.805L332.945 409.784C332.316 408.622 331.362 407.669 330.198 407.042L329.164 406.484L330.198 405.914C331.358 405.287 332.312 404.339 332.945 403.183L333.503 402.151Z" fill="#455A64"/>
<path d="M4.45033 66.563L5.02096 67.5958C5.65594 68.7525 6.60873 69.7039 7.76712 70.338L8.7895 70.896L7.76712 71.4539C6.60873 72.088 5.65594 73.0394 5.02096 74.1962L4.45033 75.229L3.8916 74.1962C3.25662 73.0394 2.30382 72.088 1.14543 71.4539L0.123047 70.896L1.14543 70.338C2.30382 69.7039 3.25662 68.7525 3.8916 67.5958L4.45033 66.563Z" fill="#455A64"/>
<path d="M545.17 434.38L545.741 435.413C546.375 436.567 547.323 437.518 548.475 438.156L549.509 438.713L548.475 439.283C547.321 439.913 546.372 440.861 545.741 442.014L545.17 443.046L544.611 442.014C543.979 440.858 543.025 439.91 541.865 439.283L540.843 438.713L541.865 438.156C543.024 437.521 543.976 436.57 544.611 435.413L545.17 434.38Z" fill="#455A64"/>
<path d="M485.387 324.786L485.945 325.818C486.584 326.969 487.536 327.916 488.692 328.549L489.726 329.119L488.692 329.676C487.533 330.311 486.58 331.262 485.945 332.419L485.387 333.452L484.816 332.419C484.189 331.26 483.239 330.308 482.082 329.676L481.047 329.119L482.082 328.549C483.236 327.919 484.185 326.971 484.816 325.818L485.387 324.786Z" fill="#455A64"/>
<path d="M104.015 259.174L104.586 260.207C105.22 261.36 106.168 262.311 107.32 262.949L108.354 263.507L107.32 264.065C106.168 264.703 105.22 265.653 104.586 266.807L104.015 267.84L103.456 266.807C102.813 265.657 101.862 264.708 100.71 264.065L99.676 263.507L100.71 262.949C101.862 262.306 102.813 261.357 103.456 260.207L104.015 259.174Z" fill="#455A64"/>
<path d="M610.627 231.68L610.913 232.19C611.228 232.767 611.702 233.24 612.28 233.555L612.803 233.84L612.28 234.125C611.702 234.44 611.228 234.914 610.913 235.49L610.627 236.013L610.354 235.49C610.037 234.911 609.558 234.436 608.975 234.125L608.464 233.84L608.975 233.555C609.558 233.244 610.037 232.77 610.354 232.19L610.627 231.68Z" fill="#455A64"/>
<path d="M208.048 354.274L208.31 354.796C208.602 355.386 209.061 355.877 209.629 356.209L210.129 356.518L209.606 356.779C209.017 357.074 208.526 357.531 208.191 358.097L207.882 358.595L207.62 358.073C207.329 357.48 206.871 356.984 206.301 356.648L205.802 356.352L206.325 356.09C206.916 355.796 207.411 355.339 207.751 354.773L208.048 354.274Z" fill="#455A64"/>
<path d="M566.583 101.844L566.868 102.355C567.177 102.936 567.653 103.412 568.235 103.72L568.746 104.005L568.235 104.29C567.653 104.598 567.177 105.074 566.868 105.655L566.583 106.165L566.298 105.655C565.989 105.074 565.513 104.598 564.93 104.29L564.419 104.005L564.93 103.72C565.513 103.412 565.989 102.936 566.298 102.355L566.583 101.844Z" fill="#455A64"/>
<path d="M217.903 116.327L218.188 116.85C218.51 117.422 218.983 117.894 219.556 118.215L220.079 118.5L219.556 118.773C218.981 119.097 218.508 119.573 218.188 120.15L217.903 120.708L217.63 120.197C217.31 119.617 216.832 119.139 216.251 118.82L215.74 118.547L216.251 118.262C216.828 117.943 217.305 117.471 217.63 116.897L217.903 116.327Z" fill="#455A64"/>
<path d="M65.5795 21.1914L65.853 21.7137C66.1773 22.2874 66.6547 22.76 67.232 23.0789L67.7432 23.3638L67.232 23.6369C66.6508 23.9559 66.1725 24.4335 65.853 25.0139L65.5795 25.5244L65.2942 25.0139C64.9748 24.4375 64.5016 23.9608 63.9271 23.6369L63.3564 23.3638L63.8795 23.0789C64.4524 22.7582 64.9255 22.2858 65.2467 21.7137L65.5795 21.1914Z" fill="#455A64"/>
<path d="M360.131 59.0961L361.094 60.8649C362.188 62.8718 363.839 64.5206 365.849 65.6134L367.632 66.5868L365.849 67.5603C363.839 68.6531 362.188 70.3019 361.094 72.3088L360.131 74.0895L359.156 72.3088C358.062 70.3019 356.41 68.6531 354.401 67.5603L352.618 66.5868L354.401 65.6134C356.41 64.5206 358.062 62.8718 359.156 60.8649L360.131 59.0961Z" fill="#455A64"/>
<path d="M656.574 336.586L657.549 338.366C658.644 340.373 660.295 342.022 662.305 343.115L664.076 344.088L662.305 345.062C660.295 346.155 658.644 347.803 657.549 349.81L656.574 351.579L655.623 349.822C654.529 347.815 652.878 346.166 650.868 345.074L649.085 344.1L650.868 343.127C652.878 342.034 654.529 340.385 655.623 338.378L656.574 336.586Z" fill="#455A64"/>
<path d="M54.2626 403.337L55.2255 405.118C56.3199 407.125 57.971 408.774 59.9808 409.867L61.764 410.828L59.9808 411.802C57.971 412.894 56.3199 414.543 55.2255 416.55L54.2626 418.331L53.2877 416.55C52.1934 414.543 50.5422 412.894 48.5325 411.802L46.7493 410.828L48.5325 409.867C50.5422 408.774 52.1934 407.125 53.2877 405.118L54.2626 403.337Z" fill="#455A64"/>
</svg>
