<svg width="200" height="200" viewBox="0 0 200 200" fill="none" xmlns="http://www.w3.org/2000/svg">
<path fill-rule="evenodd" clip-rule="evenodd" d="M49 32C56.0001 14.8334 76.0965 1.33644e-05 98.5 0C121.5 -1.37202e-05 143.833 15.1668 150.5 32.0001L166.667 32L200 200H0L33.3333 32H49ZM63 32L135 32.0001C130.5 18.5001 113 10.5 98.5 10.5C83.3 10.5 68.3334 18.5001 63 32Z" fill="#7D1FF7"/>
<path fill-rule="evenodd" clip-rule="evenodd" d="M49 32C56.0001 14.8334 76.0965 1.33644e-05 98.5 0C121.5 -1.37202e-05 143.833 15.1668 150.5 32.0001L166.667 32L200 200H0L33.3333 32H49ZM63 32L135 32.0001C130.5 18.5001 113 10.5 98.5 10.5C83.3 10.5 68.3334 18.5001 63 32Z" fill="url(#paint0_linear)"/>
<path d="M101.472 115.539L101.472 154.083L130.583 178.002V144.4C163.369 135.288 157.122 126.483 152.093 122.718L173.006 112.676L138.918 96.2966L104.384 112.676L138.918 129.043L151.396 123.05C156.751 130.285 140.445 138.936 130.583 143.328V138.973L101.472 115.539Z" fill="white"/>
<path d="M67.6452 87.0251L96.7568 110.461V71.92L84.0267 61.459C86.2779 51.578 98.9982 58.998 108.167 65.915L100.852 71.92V110.461L129.963 87.0251V48L109.54 64.779C86.8449 41.511 84.1149 56.254 83.8153 61.292L67.6442 48L67.6452 87.0251Z" fill="white"/>
<path d="M68.267 154.645C63.528 157.484 49.678 163.202 57.418 127.09L27 112.674L61.531 96.2945L95.6198 112.674L61.531 129.042L58.467 127.588C57.74 139.114 57.995 158.216 68.267 154.336V138.981L97.3796 115.54L97.3796 154.082L68.267 178V154.645Z" fill="white"/>
<defs>
<linearGradient id="paint0_linear" x1="100" y1="0" x2="100" y2="200" gradientUnits="userSpaceOnUse">
<stop stop-color="#05D9C7"/>
<stop offset="1" stop-color="white" stop-opacity="0"/>
</linearGradient>
</defs>
</svg>
